<?xml version="1.0" standalone="no"?>
<!DOCTYPE svg PUBLIC "-//W3C//DTD SVG 20010904//EN"
 "http://www.w3.org/TR/2001/REC-SVG-20010904/DTD/svg10.dtd">
<svg version="1.0" xmlns="http://www.w3.org/2000/svg"
 width="1280.000000pt" height="756.000000pt" viewBox="0 0 1280.000000 756.000000"
 preserveAspectRatio="xMidYMid meet">
<g transform="translate(0.000000,756.000000) scale(0.100000,-0.100000)"
fill="#000000" stroke="none">
<path d="M277 7520 c-45 -53 -44 -66 8 -112 80 -70 181 -243 290 -493 114
-261 184 -472 260 -780 37 -151 105 -484 117 -575 3 -24 1 -25 -72 -32 -126
-11 -224 -65 -348 -191 -307 -309 -492 -842 -529 -1521 -6 -107 -6 -108 15
-97 50 27 249 276 411 516 149 220 239 370 341 570 102 200 162 348 200 500
15 60 32 111 37 112 5 2 46 -52 90 -119 77 -117 179 -326 185 -379 3 -23 1
-24 -47 -21 -161 10 -371 -139 -529 -375 -217 -327 -348 -777 -363 -1251 -5
-164 -4 -182 10 -176 15 6 139 145 187 212 28 38 55 44 47 10 -15 -63 -39
-207 -52 -323 -16 -143 -20 -385 -6 -385 27 0 280 323 436 555 269 401 449
764 525 1063 6 23 15 42 21 42 6 0 24 -30 41 -67 16 -38 50 -98 74 -134 24
-37 44 -71 44 -76 0 -6 -21 -18 -47 -28 -72 -28 -152 -113 -201 -215 -77 -161
-108 -340 -99 -585 9 -249 56 -492 145 -741 73 -204 186 -449 202 -439 25 15
93 321 125 560 20 152 25 175 35 175 5 0 21 -39 35 -87 81 -265 223 -532 430
-808 103 -138 239 -295 256 -295 16 0 10 217 -11 403 -61 529 -199 1044 -361
1346 -22 41 -38 79 -36 85 3 6 101 -84 218 -201 l214 -212 -42 -35 c-56 -49
-76 -102 -76 -202 2 -199 130 -425 387 -679 231 -229 526 -430 862 -590 89
-42 97 -48 112 -87 67 -173 191 -382 329 -553 80 -99 309 -335 325 -335 24 0
-10 223 -73 479 -89 360 -228 716 -351 898 -26 39 -36 73 -22 73 11 0 399
-163 408 -172 6 -5 3 -28 -7 -61 -107 -339 327 -883 1006 -1260 137 -76 410
-207 432 -207 23 0 14 26 -52 145 -183 332 -526 778 -827 1075 -58 57 -106
108 -106 112 0 15 29 8 142 -36 231 -89 592 -202 808 -253 65 -16 74 -21 71
-38 -2 -11 -5 -63 -5 -115 -1 -85 3 -102 31 -167 134 -312 517 -643 1003 -869
103 -48 136 -59 138 -48 8 34 -162 306 -330 529 -180 239 -373 449 -533 582
-32 27 -46 45 -40 51 6 6 47 4 110 -5 55 -8 201 -17 325 -21 l225 -7 6 -51
c28 -230 385 -488 870 -629 238 -69 679 -138 679 -106 0 10 -77 78 -185 162
-176 138 -452 318 -665 434 -173 94 -176 95 -159 106 8 5 30 9 50 9 44 0 165
31 244 63 56 23 76 25 317 30 277 6 269 7 282 -48 11 -45 58 -113 123 -177
247 -241 704 -412 1302 -488 173 -22 231 -25 231 -11 0 21 -107 136 -193 208
-51 42 -152 117 -226 165 -151 99 -521 288 -681 347 -57 22 -106 44 -108 49
-1 5 32 17 75 27 43 9 173 41 290 71 117 30 218 54 226 54 7 0 23 -22 36 -49
62 -137 252 -253 536 -326 197 -50 353 -68 610 -68 252 0 555 30 555 54 0 15
-184 102 -360 172 -281 111 -574 202 -813 252 -67 14 -126 30 -131 35 -5 5 15
16 49 25 77 23 151 57 232 106 56 34 442 189 470 189 5 0 15 -15 21 -34 15
-40 83 -106 140 -135 273 -139 839 -82 1351 136 151 65 283 132 276 142 -5 9
-64 20 -200 38 -66 9 -75 23 -23 37 150 39 471 165 545 213 32 21 19 28 -79
42 -239 33 -720 33 -966 0 -47 -6 -87 -7 -92 -3 -4 5 22 42 59 82 l68 72 53
-11 c94 -20 229 5 381 70 179 78 365 208 533 375 106 105 216 235 216 254 0
16 -41 7 -205 -46 -191 -60 -358 -128 -557 -224 -93 -45 -171 -79 -174 -76 -3
3 13 43 36 88 84 167 210 489 210 537 0 21 -65 -18 -205 -122 -389 -289 -779
-670 -969 -949 -55 -81 -117 -198 -125 -241 -9 -38 -32 -51 -253 -141 -227
-93 -257 -96 -177 -19 66 65 197 231 282 360 76 116 249 450 263 509 6 26 5
28 -17 21 -40 -12 -197 -105 -341 -202 -273 -182 -530 -387 -729 -580 -128
-124 -136 -124 -64 6 96 170 190 412 245 631 37 147 44 190 33 190 -15 0 -164
-123 -273 -226 -284 -267 -534 -553 -693 -791 -78 -117 -166 -286 -188 -361
-8 -28 -20 -47 -34 -52 -33 -13 -217 -40 -227 -34 -5 3 31 45 79 93 164 162
291 391 378 681 42 138 89 419 74 435 -10 9 -127 -104 -238 -231 -116 -132
-255 -311 -339 -435 l-51 -77 -58 -6 c-74 -9 -301 -55 -322 -65 -9 -5 -68 -25
-131 -46 -275 -90 -506 -189 -709 -304 -50 -28 -97 -51 -106 -51 -8 0 -29 -9
-47 -20 -26 -16 -51 -20 -115 -20 -46 0 -83 4 -83 9 0 5 39 30 88 56 248 134
518 363 731 620 66 80 79 101 64 103 -29 5 -251 -63 -441 -134 -490 -184 -864
-387 -1066 -578 -26 -25 -58 -46 -70 -46 -79 0 -740 160 -787 191 -21 14 4 26
70 34 147 17 388 83 581 157 200 77 615 295 615 323 0 37 -577 31 -975 -11
-404 -42 -718 -115 -924 -215 l-66 -32 -82 35 c-45 19 -83 39 -85 45 -3 7 21
14 64 18 276 26 506 79 783 182 125 46 328 136 404 179 l40 23 -26 10 c-44 17
-279 40 -523 52 -330 16 -680 3 -965 -37 -147 -21 -360 -74 -432 -108 l-57
-27 -63 31 c-110 55 -228 125 -228 135 0 6 64 10 172 10 338 1 659 79 1053
257 141 64 182 88 164 98 -14 8 -109 23 -220 35 -128 14 -516 22 -715 14 -326
-12 -563 -47 -740 -110 -45 -16 -90 -29 -99 -29 -17 0 -147 103 -194 154 l-24
26 25 0 c14 0 49 -5 79 -10 170 -32 490 -30 724 5 210 32 565 123 565 145 0
10 -112 48 -237 79 -233 59 -588 119 -839 141 -159 15 -511 8 -612 -11 l-72
-13 -70 69 c-39 38 -70 75 -70 82 0 16 -7 17 92 -7 372 -90 896 -54 1397 98
69 20 126 42 128 48 7 20 -256 94 -527 148 -573 114 -1090 144 -1368 81 -83
-19 -85 -18 -133 51 -40 58 -149 251 -149 264 0 16 22 12 90 -16 93 -37 265
-81 425 -106 123 -20 177 -23 445 -23 236 0 336 4 444 18 76 10 148 22 159 26
20 7 18 10 -18 33 -128 80 -547 244 -875 341 -333 99 -577 145 -825 155 l-160
7 -37 90 c-54 132 -124 343 -116 351 4 4 52 -23 107 -60 348 -234 865 -397
1446 -455 54 -6 101 -8 104 -6 27 28 -457 390 -806 604 -93 57 -121 81 -93 81
5 0 78 -9 162 -20 198 -25 566 -46 580 -32 23 23 -267 219 -593 400 -479 264
-896 430 -1219 484 -69 11 -130 26 -136 32 -6 6 -23 74 -38 151 -92 472 -241
918 -423 1265 -94 179 -146 251 -215 301 l-26 19 -25 -30z m1119 -2911 c29
-84 53 -161 53 -170 1 -13 -13 -17 -62 -22 -35 -3 -89 -16 -121 -27 -31 -12
-59 -20 -62 -17 -3 2 18 74 46 158 28 85 55 173 61 197 5 24 15 42 21 40 6 -2
35 -74 64 -159z m427 -771 c14 -18 55 -87 92 -153 37 -66 78 -134 91 -152 13
-17 24 -36 24 -42 0 -6 -19 -20 -42 -32 -24 -12 -62 -42 -86 -67 -23 -25 -45
-43 -48 -40 -3 3 -9 61 -14 129 -10 127 -35 296 -51 337 -22 58 -3 69 34 20z
m1548 -1567 c75 -53 289 -181 379 -226 107 -53 105 -51 69 -97 -33 -41 -69
-140 -69 -188 0 -46 -17 -44 -52 6 -72 103 -246 335 -325 432 -45 56 -83 105
-83 107 0 14 33 0 81 -34z m7885 -293 c24 -17 43 -36 41 -42 -2 -6 -52 -14
-118 -18 -63 -4 -178 -17 -255 -28 -165 -23 -154 -23 -154 -10 0 24 96 58 180
62 64 4 104 13 160 35 41 17 81 31 88 32 8 1 34 -13 58 -31z m-2786 -253 c0
-3 -26 -58 -59 -123 -32 -64 -71 -155 -85 -202 -40 -125 -31 -120 -213 -120
-166 0 -182 6 -120 46 71 46 238 186 347 292 105 101 130 122 130 107z m1006
-200 c-21 -32 -73 -37 -56 -6 5 11 22 29 37 41 25 19 28 20 31 5 2 -9 -4 -27
-12 -40z"/>
</g>
</svg>
