<?xml version="1.0" standalone="no"?>
<!DOCTYPE svg PUBLIC "-//W3C//DTD SVG 20010904//EN"
 "http://www.w3.org/TR/2001/REC-SVG-20010904/DTD/svg10.dtd">
<svg version="1.0" xmlns="http://www.w3.org/2000/svg"
 width="1280.000000pt" height="1254.000000pt" viewBox="0 0 1280.000000 1254.000000"
 preserveAspectRatio="xMidYMid meet">
<metadata>
Created by potrace 1.15, written by Peter Selinger 2001-2017
</metadata>
<g transform="translate(0.000000,1254.000000) scale(0.100000,-0.100000)"
fill="#000000" stroke="none">
<path d="M7280 12525 c-18 -21 -4 -35 93 -92 180 -105 342 -243 515 -435 106
-119 152 -178 135 -178 -21 1 -59 35 -178 158 -201 209 -353 312 -540 368 -75
22 -116 27 -245 31 -170 6 -353 -8 -397 -29 -30 -14 -38 -36 -29 -73 4 -16 20
-29 53 -41 27 -10 72 -41 103 -70 132 -125 425 -287 657 -363 127 -42 378
-101 518 -122 105 -16 127 -28 50 -29 -193 0 -506 80 -781 201 -109 48 -138
48 -142 3 -3 -29 11 -46 145 -184 276 -285 511 -446 778 -536 235 -78 466 -83
758 -15 136 32 171 29 303 -28 169 -73 304 -153 304 -181 0 -17 -55 -18 -350
-10 -352 9 -406 19 -548 96 -46 25 -94 44 -105 42 -19 -3 -22 -9 -21 -53 3
-97 104 -285 232 -428 206 -232 485 -402 797 -487 87 -23 97 -28 78 -38 -34
-18 -34 -37 -2 -130 145 -408 499 -780 973 -1019 196 -99 357 -159 580 -216
l128 -33 47 -120 c26 -65 57 -137 68 -159 27 -52 47 -115 39 -122 -3 -4 -23 7
-44 24 -62 50 -91 60 -237 82 -77 12 -183 35 -235 51 -187 59 -369 181 -521
353 -96 108 -121 127 -147 111 -28 -18 -25 -51 18 -202 126 -447 319 -829 591
-1173 173 -219 482 -501 711 -648 l89 -56 -4 -140 c-3 -152 -22 -225 -57 -225
-9 0 -46 31 -82 68 -64 69 -79 80 -283 208 -299 187 -454 390 -527 692 -18 74
-23 83 -42 80 -18 -3 -23 -15 -38 -103 -70 -416 -25 -961 122 -1458 100 -339
230 -620 409 -882 91 -135 131 -208 131 -244 0 -15 -22 -71 -49 -125 -27 -53
-66 -139 -86 -190 -32 -84 -59 -126 -78 -126 -4 0 -7 24 -7 53 0 70 -24 117
-161 322 -179 266 -268 465 -320 715 -18 85 -22 141 -23 290 -1 102 2 217 6
255 l8 70 -46 -50 c-222 -239 -375 -718 -445 -1395 -45 -443 -46 -982 -3
-1407 l16 -154 -55 -72 c-125 -161 -367 -406 -439 -443 -25 -13 -28 -13 -28 1
0 19 30 79 75 149 82 129 99 245 91 616 -7 317 -1 385 55 604 27 108 51 183
152 468 26 74 29 91 19 113 -9 19 -19 25 -45 25 -155 0 -758 -641 -1134 -1205
-173 -261 -263 -423 -402 -728 -157 -345 -261 -500 -433 -647 -145 -123 -305
-207 -583 -306 -71 -25 -202 -77 -290 -115 -156 -68 -166 -71 -402 -114 l-241
-45 -204 96 c-430 205 -651 353 -873 586 -191 201 -325 394 -590 853 -268 463
-408 674 -604 904 -224 264 -601 588 -834 716 -129 71 -175 29 -98 -89 99
-152 196 -548 221 -906 34 -490 45 -552 129 -717 17 -34 31 -68 31 -74 0 -38
-162 83 -328 246 l-154 150 13 185 c29 445 -15 1074 -111 1588 -81 432 -237
923 -368 1155 -37 66 -75 83 -103 48 -17 -21 -19 -41 -19 -205 0 -352 -62
-564 -250 -850 -121 -185 -162 -281 -180 -420 -5 -44 -13 -82 -16 -85 -13 -13
-67 69 -120 179 -30 63 -73 142 -95 176 -21 33 -39 72 -39 86 0 16 18 48 46
83 257 315 473 843 569 1390 42 240 50 339 50 595 0 322 -28 515 -77 541 -33
18 -55 -15 -94 -140 -70 -226 -153 -359 -272 -435 -37 -23 -116 -64 -175 -91
-182 -82 -241 -127 -339 -262 -33 -46 -64 -83 -69 -83 -23 0 -70 303 -56 361
5 19 32 42 95 82 198 126 426 318 567 477 263 298 420 582 638 1155 91 241
105 327 61 376 -41 46 -93 7 -144 -106 -72 -157 -86 -182 -131 -227 -91 -91
-223 -135 -429 -144 -221 -9 -289 -29 -379 -108 -111 -99 -114 -30 -9 216 50
118 81 177 98 189 20 14 58 20 180 28 172 11 282 34 416 86 395 155 769 525
1002 993 50 100 67 144 68 179 l2 47 58 13 c386 87 760 336 893 593 70 137 88
229 49 254 -18 11 -21 11 -183 -39 -72 -21 -117 -28 -225 -32 -124 -5 -147 -3
-289 27 -112 23 -166 30 -199 25 -34 -5 -43 -4 -40 7 13 40 249 175 353 203
82 21 176 19 420 -10 416 -49 618 -24 887 111 168 84 404 257 571 417 73 70
82 97 43 123 -23 14 -30 14 -86 0 -34 -9 -94 -16 -134 -16 -102 0 -412 -65
-570 -120 -69 -23 -109 -26 -125 -7 -8 11 -5 19 13 36 18 17 55 28 162 47 251
45 431 99 639 189 174 76 386 196 448 254 99 91 60 165 -74 141 -44 -9 -115
-10 -229 -5 -211 10 -236 8 -312 -16 -181 -59 -374 -184 -538 -348 -63 -63
-106 -101 -96 -85 72 112 313 361 445 459 87 65 107 98 75 123 -28 21 -296 10
-429 -18 -489 -103 -891 -405 -1120 -842 l-51 -97 -133 -66 c-74 -36 -135 -64
-137 -62 -2 2 2 42 11 88 10 59 28 111 59 174 82 162 207 287 507 504 211 152
223 166 178 207 -18 16 -34 19 -108 16 -370 -11 -734 -124 -1016 -315 -131
-89 -323 -284 -414 -421 -142 -214 -228 -428 -280 -696 -23 -116 -41 -295 -41
-409 0 -71 -1 -75 -37 -115 -20 -22 -40 -43 -45 -44 -5 -2 -20 22 -35 54 -95
208 28 725 243 1027 19 26 34 49 34 51 0 2 -21 -1 -47 -5 -268 -51 -520 -199
-708 -419 -316 -369 -505 -917 -506 -1470 -1 -263 30 -415 114 -555 40 -67 42
-74 45 -165 l3 -95 -22 25 c-54 61 -133 267 -169 440 -57 276 -53 618 10 864
24 95 25 120 5 136 -27 22 -70 -7 -189 -131 -281 -291 -472 -618 -566 -972
-86 -323 -93 -684 -20 -1021 54 -249 181 -543 327 -761 84 -125 229 -295 303
-356 l43 -36 -9 -57 -9 -58 -70 53 c-99 75 -229 210 -308 320 -169 236 -318
626 -378 992 -7 42 -15 77 -18 77 -11 0 -103 -234 -151 -380 -106 -323 -144
-560 -144 -885 0 -231 11 -346 49 -515 144 -626 532 -1163 1122 -1551 73 -47
161 -101 196 -120 57 -29 65 -37 80 -80 9 -25 17 -49 17 -53 0 -11 -147 47
-275 109 -362 176 -667 455 -1000 915 -53 74 -102 140 -107 145 -14 14 -2
-322 17 -495 66 -569 267 -1071 605 -1510 93 -121 337 -364 460 -460 449 -347
957 -549 1473 -586 53 -3 100 -10 103 -15 3 -5 37 -37 77 -71 l71 -61 -179 6
c-205 7 -365 25 -580 68 -454 90 -909 257 -1184 436 -103 67 -126 76 -152 63
-37 -20 -24 -67 54 -196 409 -675 954 -1172 1669 -1525 690 -339 1482 -518
2426 -548 264 -8 736 1 952 18 228 19 224 24 66 -74 -183 -114 -323 -208 -450
-304 -198 -149 -266 -219 -266 -273 0 -36 46 -102 136 -196 117 -121 126 -119
359 88 205 183 350 302 478 392 56 39 150 106 208 150 58 43 110 78 116 78 5
0 29 -21 53 -46 25 -25 108 -103 185 -174 77 -70 219 -203 315 -296 233 -225
387 -363 426 -381 48 -23 76 -11 166 75 108 103 138 145 138 194 0 47 -26 77
-212 245 -220 199 -325 276 -564 413 l-135 78 48 11 c149 35 327 39 578 16
214 -21 680 -21 937 -1 1097 87 2058 405 2717 898 149 112 377 328 478 453
147 182 281 409 359 611 35 90 36 98 20 110 -15 11 -26 4 -84 -55 -203 -205
-535 -338 -992 -396 -78 -10 -231 -18 -407 -20 -279 -4 -363 -12 -444 -40 -23
-8 -53 -15 -67 -15 -25 0 -25 0 -7 20 31 34 126 87 185 103 30 9 98 21 150 27
509 60 964 242 1325 530 608 485 978 1292 951 2075 -3 99 -12 214 -19 255
l-14 75 -17 -40 c-94 -217 -171 -331 -341 -501 -141 -143 -302 -269 -481 -376
-111 -67 -328 -179 -373 -193 -22 -7 -23 -5 -17 21 10 41 34 63 182 174 1025
765 1404 1740 1123 2890 -41 167 -136 453 -161 485 -42 54 -70 20 -88 -105
-39 -287 -119 -515 -261 -750 -63 -103 -411 -594 -429 -605 -6 -4 -10 25 -10
73 l0 79 82 89 c511 558 675 1264 463 1993 -71 244 -195 509 -338 724 -109
162 -180 250 -308 382 l-107 109 18 -87 c57 -271 49 -671 -20 -1042 -43 -227
-100 -400 -121 -363 -5 9 -15 45 -22 80 -13 60 -12 71 10 159 31 126 60 294
74 437 14 146 6 453 -16 582 -109 651 -492 1176 -1128 1549 l-87 51 39 -73
c139 -255 280 -935 231 -1112 -28 -99 -49 -69 -84 118 -145 769 -413 1251
-867 1555 -227 152 -520 266 -876 342 -161 34 -221 38 -229 15 -15 -37 6 -62
88 -110 132 -75 264 -179 388 -304 172 -172 348 -418 366 -510 l7 -34 -54 6
c-77 10 -204 43 -232 62 -13 8 -53 68 -90 132 -269 479 -563 724 -1030 857
-101 29 -303 69 -465 91 -140 19 -156 19 -172 0z m-4675 -2295 c144 -72 227
-91 416 -97 l156 -5 -78 -74 c-61 -56 -91 -77 -131 -89 -75 -22 -234 -19 -365
6 -59 12 -144 23 -188 24 -44 2 -84 4 -89 4 -14 2 4 73 29 116 47 79 116 165
133 165 9 0 62 -22 117 -50z m7813 -285 c135 -129 130 -157 -21 -125 -52 10
-166 24 -254 29 -206 13 -317 41 -477 121 l-121 60 70 -8 c182 -18 424 1 587
47 l63 18 40 -36 c22 -20 73 -67 113 -106z"/>
</g>
</svg>
