<?xml version="1.0" standalone="no"?>
<!DOCTYPE svg PUBLIC "-//W3C//DTD SVG 20010904//EN"
 "http://www.w3.org/TR/2001/REC-SVG-20010904/DTD/svg10.dtd">
<svg version="1.0" xmlns="http://www.w3.org/2000/svg"
 width="1280.000000pt" height="640.000000pt" viewBox="0 0 1280.000000 640.000000"
 preserveAspectRatio="xMidYMid meet">
<metadata>
Created by potrace 1.15, written by Peter Selinger 2001-2017
</metadata>
<g transform="translate(0.000000,640.000000) scale(0.100000,-0.100000)"
fill="#000000" stroke="none">
<path d="M12557 5551 c-46 -78 -98 -130 -169 -169 -88 -48 -151 -98 -195 -155
-30 -39 -191 -399 -234 -525 -10 -30 -19 -79 -19 -107 0 -46 -5 -59 -39 -101
-43 -55 -183 -178 -306 -270 -151 -114 -262 -182 -441 -273 -98 -49 -229 -117
-291 -150 -62 -34 -110 -55 -107 -47 3 8 17 17 31 21 14 3 48 28 77 55 61 58
122 93 321 184 83 38 168 82 190 97 113 77 212 225 271 405 21 63 35 117 31
120 -3 4 -46 -20 -94 -52 -84 -55 -278 -238 -647 -609 -109 -110 -117 -116
-91 -70 45 80 103 163 179 260 167 211 320 446 332 513 13 69 -28 196 -100
310 l-27 43 -45 -33 c-70 -50 -168 -159 -198 -219 -58 -121 -136 -481 -136
-633 0 -71 -39 -186 -107 -318 l-65 -127 -322 -177 c-176 -98 -332 -184 -345
-193 -24 -15 -23 -13 9 47 36 67 60 91 190 184 107 77 193 164 216 220 49 114
178 344 246 436 23 30 29 45 21 53 -17 17 -46 3 -140 -67 -48 -36 -135 -94
-193 -129 -118 -71 -165 -116 -237 -225 -104 -155 -173 -316 -198 -462 l-17
-96 -73 39 c-88 48 -110 46 -171 -18 -23 -23 -47 -43 -52 -43 -6 0 -24 12 -41
26 -41 34 -42 80 -3 122 21 23 34 29 54 25 37 -7 131 23 168 53 68 58 80 135
30 196 -17 20 -46 42 -66 48 -31 11 -41 9 -82 -12 -58 -30 -102 -90 -108 -149
-9 -78 -13 -87 -44 -97 -27 -10 -31 -9 -44 17 -21 40 -102 111 -127 111 -12 0
-41 -19 -65 -44 -36 -35 -44 -50 -44 -80 0 -50 22 -90 65 -116 36 -22 69 -23
133 -4 16 5 22 2 22 -10 0 -26 -34 -53 -76 -61 -129 -24 -242 -126 -293 -266
-8 -22 -18 -27 -58 -33 -49 -6 -226 -44 -458 -96 -71 -17 -204 -45 -295 -64
-91 -19 -178 -37 -195 -41 -51 -12 72 59 310 177 277 138 370 198 431 277 26
33 92 98 148 145 99 83 186 166 174 166 -4 0 5 26 19 57 19 40 28 79 31 132
l4 76 -35 -50 c-64 -92 -91 -111 -219 -149 -125 -38 -267 -96 -339 -138 -60
-36 -251 -200 -323 -279 -32 -35 -84 -102 -114 -149 -31 -47 -79 -111 -108
-142 -28 -31 -63 -79 -75 -107 -22 -46 -29 -52 -76 -66 -53 -16 -73 -18 -73
-10 0 2 42 66 93 142 51 76 103 159 115 185 25 55 29 126 8 167 -25 47 -83 91
-120 91 -36 0 -102 -42 -130 -82 -20 -28 -21 -88 -1 -135 23 -54 44 -73 80
-73 38 0 55 -16 55 -51 0 -30 -40 -85 -69 -94 -10 -3 -30 -1 -45 4 -20 8 -26
17 -26 39 0 41 -35 80 -94 108 -67 31 -82 30 -122 -10 -27 -27 -34 -42 -34
-74 0 -44 28 -93 73 -126 25 -18 31 -19 70 -7 80 24 87 24 107 6 19 -17 19
-19 3 -37 -9 -10 -44 -33 -77 -51 -33 -18 -75 -47 -93 -65 -21 -20 -71 -49
-131 -73 -53 -23 -129 -58 -167 -79 -39 -21 -112 -53 -162 -70 -84 -28 -97
-29 -138 -19 l-46 12 21 34 c22 38 25 47 10 38 -10 -6 -223 -34 -265 -35 -11
0 15 21 60 48 133 79 233 159 376 302 185 184 188 192 46 126 -199 -94 -264
-115 -426 -136 -82 -11 -182 -26 -223 -34 -40 -8 -74 -13 -76 -12 -1 2 12 23
30 47 90 124 293 501 398 739 54 122 53 171 -3 156 -16 -4 -38 -36 -77 -113
-134 -261 -267 -418 -475 -560 -213 -146 -363 -293 -380 -375 -4 -18 -11 -43
-16 -56 l-9 -23 -27 26 c-56 52 -91 68 -140 62 -56 -6 -112 -44 -170 -115 -36
-45 -43 -60 -43 -98 0 -26 9 -62 21 -85 11 -23 18 -43 15 -46 -2 -3 -36 0 -75
6 -38 6 -176 11 -305 11 -162 0 -237 3 -242 11 -4 7 -23 9 -51 5 -33 -4 -53
-1 -74 11 -16 10 -29 21 -29 25 0 4 21 10 48 13 26 4 101 17 167 30 456 91
527 118 690 266 99 89 175 175 229 256 28 43 87 108 153 168 163 149 153 138
123 126 -14 -6 -50 -15 -80 -21 -30 -6 -93 -26 -140 -46 -87 -35 -324 -124
-332 -124 -3 0 12 33 32 73 53 102 125 288 166 429 19 67 33 123 31 125 -2 2
-17 -15 -33 -38 -34 -49 -205 -213 -287 -275 -33 -24 -100 -68 -150 -98 -121
-72 -190 -134 -221 -199 -14 -28 -41 -127 -60 -219 -38 -181 -50 -210 -120
-305 -42 -57 -86 -87 -103 -69 -3 3 3 29 14 58 16 42 30 59 66 84 84 56 90 63
84 116 -8 65 -40 123 -76 138 -92 38 -149 -67 -100 -185 l23 -56 -45 -87 c-45
-86 -45 -87 -86 -90 -39 -3 -41 -2 -47 33 -8 41 -3 51 45 94 80 69 52 161 -60
199 -71 25 -114 -18 -114 -115 0 -47 -2 -53 -21 -53 -26 0 -55 19 -137 89
-113 96 -223 135 -433 153 -152 13 -292 3 -516 -38 -161 -30 -156 -30 -305 36
l-60 27 140 7 c474 23 723 93 995 280 177 122 430 410 392 448 -17 17 -46 0
-134 -72 -83 -70 -227 -150 -333 -186 -29 -9 -108 -20 -190 -25 -174 -11 -354
-36 -420 -58 -27 -9 -117 -61 -200 -115 -188 -124 -206 -130 -344 -123 -151 8
-247 34 -306 83 -44 35 -132 142 -123 148 1 2 41 -3 88 -10 171 -26 424 -38
528 -25 94 11 106 16 447 173 447 205 619 288 612 294 -2 3 -103 -12 -223 -32
-233 -40 -279 -43 -619 -34 -194 5 -180 10 -420 -151 -103 -70 -189 -120 -217
-128 -47 -13 -119 -10 -198 9 -19 4 -47 11 -63 14 -27 6 -93 88 -210 259 -40
59 -47 75 -47 118 0 56 24 111 64 148 14 14 26 30 26 36 0 16 -70 80 -110 100
-27 14 -49 16 -106 12 -51 -4 -74 -2 -77 6 -3 7 -62 89 -133 184 -125 166
-175 242 -280 423 -64 111 -187 235 -319 322 -55 36 -181 109 -280 163 -218
118 -257 144 -360 236 -44 40 -111 93 -150 118 l-70 46 -100 -1 c-148 -1 -438
-25 -453 -36 -37 -30 13 -107 102 -159 59 -33 88 -35 198 -13 78 16 80 16 161
-9 45 -14 98 -29 117 -33 59 -11 135 -54 215 -120 82 -68 129 -98 305 -194
238 -130 358 -230 495 -409 40 -53 118 -150 175 -216 114 -135 190 -244 245
-355 20 -41 52 -100 71 -131 24 -40 38 -81 48 -137 8 -43 24 -101 36 -128 21
-45 23 -47 29 -24 6 21 9 18 24 -29 9 -29 17 -71 17 -93 l0 -39 27 21 c15 12
35 33 44 46 l16 25 56 -73 c37 -49 67 -103 90 -164 61 -159 71 -205 64 -306
-7 -107 7 -286 29 -378 9 -36 36 -106 60 -157 53 -111 128 -192 261 -281 50
-34 107 -80 126 -104 59 -74 164 -231 193 -290 21 -44 31 -55 41 -47 36 30 24
149 -34 339 -20 63 -39 150 -44 193 -11 113 -32 164 -115 288 -112 168 -224
306 -332 410 -87 83 -102 102 -129 169 -17 41 -34 84 -37 95 -3 12 38 -22 92
-75 54 -52 134 -120 178 -150 84 -59 348 -316 388 -377 13 -21 33 -81 45 -133
70 -301 143 -454 288 -597 77 -76 176 -127 288 -149 44 -9 91 -22 105 -29 37
-19 239 -214 301 -290 29 -36 54 -63 56 -62 8 8 -126 318 -216 502 -128 260
-197 364 -325 490 -115 115 -212 188 -294 221 -31 12 -79 41 -107 63 -63 50
-150 139 -144 146 3 2 30 -4 60 -15 30 -10 95 -31 145 -45 75 -23 101 -36 149
-77 83 -70 153 -116 282 -183 221 -114 267 -191 183 -308 -35 -49 -34 -67 6
-149 26 -52 57 -78 93 -78 26 0 91 36 91 51 0 21 17 6 39 -35 12 -25 30 -47
38 -51 25 -9 130 16 152 37 27 24 27 67 1 117 -25 50 -80 84 -134 84 l-41 -1
-55 96 c-81 141 -139 195 -290 272 -121 61 -234 129 -227 137 7 7 284 -79 343
-106 71 -33 302 -188 464 -311 214 -163 310 -267 310 -334 -1 -45 -31 -105
-85 -166 -82 -93 -92 -146 -50 -270 19 -55 25 -94 25 -154 -1 -233 -65 -396
-179 -456 l-36 -19 35 0 c99 -1 250 52 326 114 77 64 101 114 161 352 49 192
56 230 57 323 1 85 -3 112 -18 140 l-19 35 50 -47 c59 -54 106 -71 398 -143
257 -63 332 -93 393 -156 50 -53 123 -109 142 -109 18 0 3 76 -31 148 -57 125
-197 241 -434 360 -94 47 -141 78 -217 145 -130 115 -173 139 -244 138 -30 0
-72 6 -92 14 -48 19 -180 49 -312 70 -102 17 -107 19 -175 73 -38 30 -62 53
-53 49 58 -21 118 -30 227 -36 l125 -6 8 -33 c16 -62 106 -92 168 -55 28 16
50 51 50 78 0 11 11 15 38 15 35 0 45 -7 93 -58 30 -33 68 -77 86 -99 50 -63
184 -124 368 -168 206 -50 378 -108 590 -200 343 -148 552 -215 664 -215 32 0
94 11 140 25 234 70 439 94 504 61 31 -17 32 -15 12 25 -18 35 -193 167 -274
209 -81 40 -117 48 -296 59 -88 6 -188 14 -222 17 l-63 6 68 33 c87 42 174
107 281 210 l87 84 146 -80 146 -81 51 -83 c75 -122 109 -143 185 -111 43 18
76 61 76 101 0 17 -14 59 -30 93 -39 77 -66 89 -165 71 -79 -14 -110 -9 -161
26 -22 15 -75 45 -119 67 -44 22 -82 42 -84 44 -2 2 4 13 14 25 15 16 16 22 6
28 -31 20 30 20 182 1 311 -38 381 -53 647 -134 230 -70 357 -96 469 -96 73 0
103 6 202 39 150 51 599 241 599 254 0 2 -56 3 -125 3 l-124 0 -100 52 c-55
29 -128 59 -163 67 -136 32 -349 12 -773 -72 l-230 -45 -155 6 c-85 4 -175 10
-200 15 -43 7 -44 8 -20 18 14 6 60 27 103 47 86 40 107 44 107 21 0 -26 48
-38 100 -25 66 16 118 56 131 99 10 34 16 37 81 58 70 21 70 21 103 2 30 -18
51 -20 236 -18 112 1 312 -1 444 -5 356 -12 452 -2 780 78 149 36 288 71 310
77 l40 11 -185 60 c-102 32 -200 65 -218 71 l-32 13 146 65 147 65 43 -15 c41
-15 46 -14 79 3 19 11 51 43 71 73 19 29 41 53 49 53 7 0 23 -13 35 -30 34
-47 102 -82 173 -87 65 -6 177 12 177 27 0 5 -15 26 -32 46 l-33 37 55 -6 c30
-4 154 -14 275 -23 296 -23 345 -14 620 106 136 60 215 108 246 152 31 42 14
53 -74 51 -219 -6 -499 -25 -563 -39 -72 -14 -260 -75 -397 -128 -37 -14 -84
-26 -105 -26 -37 0 -149 23 -158 33 -6 6 79 55 471 269 253 139 331 177 370
182 69 8 370 42 545 61 363 39 475 64 670 144 311 130 479 251 569 411 l22 40
-23 0 c-42 0 -282 -39 -368 -60 -134 -33 -209 -76 -345 -196 -222 -199 -288
-227 -650 -279 -250 -35 -275 -38 -280 -33 -3 3 43 27 101 54 206 94 576 368
691 511 21 27 65 73 98 103 198 181 284 286 414 502 103 173 151 313 151 442
0 88 -10 106 -33 67z m-2950 -2343 c6 -7 13 -25 16 -39 6 -25 2 -28 -154 -95
l-161 -70 -64 10 c-35 5 -64 12 -64 16 0 18 64 92 99 116 78 51 150 74 237 74
54 0 85 -4 91 -12z m-4890 -630 c16 -19 47 -107 40 -114 -1 -1 -88 -11 -192
-22 l-190 -19 -58 31 -58 31 58 5 c32 3 82 16 111 29 40 18 202 67 263 80 3 0
15 -9 26 -21z m83 -197 c5 -11 10 -22 10 -25 0 -9 -240 -5 -275 4 -36 9 -38 9
100 24 155 18 153 18 165 -3z m815 -97 c77 -6 178 -41 197 -68 4 -5 -7 -25
-23 -43 -37 -43 -48 -82 -25 -95 13 -7 14 -13 6 -23 -15 -18 -8 -21 90 -39 46
-9 86 -18 88 -21 3 -3 -23 -5 -58 -5 -117 0 -474 121 -538 183 -34 33 -92 110
-92 123 0 7 183 0 355 -12z m-680 -354 c18 -11 49 -46 70 -77 l37 -58 -76 75
c-42 41 -76 76 -76 77 0 7 15 1 45 -17z"/>
</g>
</svg>
